<?xml version="1.0" encoding="UTF-8"?>
<svg id="Layer_1" data-name="Layer 1" xmlns="http://www.w3.org/2000/svg" viewBox="0 0 2000 2000">
  <defs>
    <style>
      .cls-1 {
        fill: #5630a0;
      }

      .cls-2 {
        fill: #7541e5;
      }

      .cls-3 {
        fill: #713edd;
      }

      .cls-4 {
        fill: #7844ef;
      }

      .cls-5 {
        fill: #6037b8;
      }

      .cls-6 {
        fill: #7c46f6;
      }

      .cls-7 {
        fill: #5831a3;
      }

      .cls-8 {
        fill: #422581;
      }

      .cls-9 {
        fill: #6e3ed7;
      }

      .cls-10 {
        fill: #5c34ad;
      }

      .cls-11 {
        fill: #6b3cce;
      }

      .cls-12 {
        fill: #45278a;
      }

      .cls-13 {
        fill: #5d34af;
      }

      .cls-14 {
        fill: #6639c4;
      }
    </style>
  </defs>
  <path class="cls-6" d="M527.43,1504.48c24.52,21.04,57.13,26.75,87.85,29.29,5.78.48,11.75-.24,17.57,0-6.93,14.58,31.93,16.41,46.85,17.57,20.28,1.59,43.67.18,64.43,0h11.71c13.25-.72,28.42,1.64,41,0-2.18,23.66,19.54,24.2,30.57,42.65,12.38,20.69,18.59,57.42,33.67,77.62,28.8,38.58,87.7,86.66,120.45,125.39,18.89,22.34,35.53,58.57,52.95,76.08,14.11,14.19,32.82,5.66,25.92,35.58-28.08,7.97-52.08,14.38-82,11.72-44.9-4-89.45-30.55-122.99-58.58-119.97-100.24-239.79-239.86-351.41-351.46,4.18-9.42,16.1-4.8,23.43-5.86Z"/>
  <path class="cls-5" d="M1569.95,596.53c13.93,4.19,38.97,16.63,52.71,23.43,26.38,13.06,37.46,32.38,58.57,52.72-16.45-.03-21.51,3.41-35.07,11.83-2.58,9.54,8.25,4.07,10.15,6.73,15.58,21.74-18.67,14.81-29.84,21.91-7.79,4.95-5.74,17.49-10.96,22.61-5.66,5.56-27.72,8.48-39.43,16.31-19.55,13.06-26.04,41.94-35.34,46.65-14.59,7.38-41.31,1.67-60.84,15.3s-25.66,50.24-41.6,63.83c-21.98,18.75-74.9,32.08-90.7,44-9.47,7.14-9.63,23.21-12.87,25.21-6.59,4.07-21.54-3.32-31.54,6.59-14.32,14.19,5.14,29.86-40.22,23.12-15.25-2.27-28.36-12.36-44.41-11.17l22.16,22.93c18.25.11,40.05,14.71,53.95,18.05v5.86c-43.7-11.19-79.13-22.57-117.14-46.86-5.71-12.25-3.38-22.65-.02-35.1l-46.84-.04c-4.89-4.01-11.62-12.16-17.57-17.57v-5.86l35.12-11.72c-4.41,19.93,6.61,22.54,25.16,16.35,22.93-7.66,46.24-58.86,84.53-67.75,13.72-3.19,30.62,1.8,42.73-4.13,13.06-6.4,11.39-31.26,20.42-44.02,1.32-1.86,30.83-30.42,32.68-31.75,25.64-18.32,74.22-36.78,98.82-59.35,11.94-10.95,16.4-33.39,35.15-46.82,26.46-18.96,64.5-23.45,82.23-61.27ZM1649.01,666.83v5.86c3.8-1.95,3.8-3.91,0-5.86Z"/>
  <path class="cls-6" d="M1025.26,81.05c84.12,10.13,130.04,76.53,187.42,128.87,120.61,110.03,236.63,227.3,351.41,345.6-9.14,7.55-15.15,1.06-23.32-2.65-20.65-9.38-31.04-13.69-52.82-20.78-5.93-1.93-11.37-3.96-17.57-5.86-1.74-1.93-3.58-4.77-5.86-5.86-40.55-19.35-96.34-19.23-140.56-17.57-9.65.36-19.77-.88-29.28,0,4.26-33.71-30.85-38.88-43.77-58.73-8.18-12.57-7.29-25.99-14.62-38.09-8.36-13.8-31.08-22.83-37.87-32.42-6.56-9.27-6.21-23.66-12.51-34.35-10.35-17.56-41.8-41.38-55.37-61.78-11.31-17.01-22.34-51.32-35.8-69.63-18.91-25.72-55.48-49.38-75.45-70.98-12.83-13.87-18.03-41.17-40.88-49.91,12.36-.8,25.88-8.38,46.85-5.86Z"/>
  <path class="cls-10" d="M1195.11,1076.87c20.9,13.96,31.31-20.61,47.18-9.11,8.9,6.45,15.77,51.08,26.06,61.8,11.25,11.72,33.43,6.06,43.46,20.97,9.62,14.29,3.03,35.09,15.33,54.96,13.69,22.13,54.26,53.05,73.11,73.32,7.51,8.08,9.72,21.56,17.25,29.61,9.93,10.63,27.44,12.26,34.77,23.8,11.51,18.14.72,44.52,15.32,60.83,13.24,14.79,58.64,21.57,61.02,23.88,3.82,3.71-3.38,34.8.93,40.35,1.69,2.17,8.61-.42,11.13.34,2.62.79,4.86,3.27,5.86,5.86-40.57,39.55-69.21,79.27-117.14,111.3-7.02,10.81-7.52,28.72-29.28,29.29.88-1.33-.85-4.34,0-5.86,10.97-19.61,17.15-15.32,29.28-23.43,10.05-15.46,23.17-31.44,29.3-46.8-28.58.87-34.06-41.13-50.2-64.09-13.77-19.6-47.55-63.41-63.16-80.34-14.35-15.56-51.85-36.79-62.54-51.67-10.28-14.29-9.75-35.73-20.44-49.83-10-13.19-26.43-13.98-30.65-19.16-5.37-6.61-3.22-24.98-10.35-33.6-7.22-8.73-29.19-9.92-39.5-17.47-7.29-5.34-9.94-17.18-18.7-23.83-11.03-8.38-26.35-9.35-32.53-14.54-8.1-6.8-.44-24.52-17.5-20.4,5.08-4.82,16.22-24.09,29.28-35.15,17.78-15.06,31.22-28.67,52.71-41Z"/>
  <path class="cls-13" d="M861.27,1112.01l17.57,11.72c2.12,1.75,3.77,4.11,5.86,5.86,10.7,16.28,25.87,29.13,38.85,43.26,2.76,3,1.33,8.48,2.15,9.46l-11.77,29.3c-19.04,6.14-8.25-27.24-26.22-23.42-7.03,1.5-16,23.28-23.38,29.39-6.33,5.25-16.35,6.43-23.6,11.54-90.33,63.81-193.92,127.85-280.95,199.08-23.42,19.17-54.57,29.12-61.63,64.56-12.09-3.28,13.03-36.77-17.55-35.16.66,12.56,2.92,20.72-11.74,17.59-3.9-3.91-7.81-7.79-11.71-11.72l-5.86-5.86c-18.59-18.68-37.78-43.48-52.71-58.58-4.84-25,25.45-1.95,29.23-5.82.61-.62-.22-11.65,3.21-17.11,10.08-16.04,36.44-19.11,53.55-28.72,16.41-9.22,62.44-30.63,69.7-35.73,10.62-7.47,11.61-29.41,29.55-40.74,40.74-25.73,97.97-48.49,139.07-71.79,14.72-8.34,25.56-29.49,39.21-36.92,9.38-5.1,22.19-3.89,30.69-8.86,17.93-10.49,18.17-47.85,39.2-58.92,9.01,6.05,20.07,10.44,29.28,17.57Z"/>
  <path class="cls-10" d="M609.42,385.66c-5.58,7.53-23.37,25.65-23.63,27.45-.55,3.75,5.69,46.8,7.14,50.55,1.11,2.89,33.51,47.03,35.77,49.14,6.06,5.63,17.55,5.54,24.54,13.55,9.13,10.46,8.67,30.39,17.8,40.81,7.28,8.31,19.36,8.03,24.73,13.33,6.15,6.07,24.62,44.85,36.83,59.82,17.55,21.52,45.33,40.5,61.59,61.41,42.33,54.45,42.32,69.02,106.41,107.49,5.73,3.44,3.51,16.28,16.26,15.85,2.06-.07,9.14-32.07,26.41-29.35-20.59,55.92-73.57,100.08-117.14,134.73-4.83-22.51-27.86-32.41-40.13-50.65-11.19-16.64-19.96-50.23-33.28-66.3-21.19-25.57-50.85-50.39-75.44-82.71-25.39-33.38-50.29-76.94-73.31-108.25-6.76-9.2-20.82-9.62-27.9-16.09-18.99-17.32-5.27-54.31-36.93-56.76,3.63-47.36,2.73-81.54,29.28-123.01,11.09-17.33,21.82-32.31,41-41Z"/>
  <path class="cls-5" d="M960.83,748.83c-4.53,12.13-4.73,16-11.71,29.29-4.51,2.81-4.63,7.2-5.86,11.72-.52,1.9.6,4.23,0,5.86-17.27-2.72-24.36,29.29-26.41,29.35-12.75.43-10.53-12.42-16.26-15.85-64.09-38.47-64.08-53.04-106.41-107.49-16.26-20.92-44.04-39.9-61.59-61.41-12.2-14.97-30.68-53.75-36.83-59.82-5.37-5.3-17.45-5.02-24.73-13.33-9.13-10.42-8.67-30.35-17.8-40.81-6.99-8.01-18.48-7.92-24.54-13.55-2.26-2.11-34.66-46.25-35.77-49.14-1.45-3.75-7.69-46.8-7.14-50.55.26-1.79,18.06-19.91,23.63-27.45,17.79-24.03,28.11-29.23,46.85-46.86l65.29,113.37c32.95,13.35,24.83,45.32,37.46,62.12,6.38,8.49,20.97,9.99,29.24,17.62,50.39,46.52,74.46,97.61,111.46,152.12,8.21,12.1,24.22,20.95,31.11,33.32,9.21,16.52,1.69,45.59,30.01,31.5Z"/>
  <path class="cls-14" d="M1066.26,1211.59l5.92,58.55c12.04,2.05,1.01-17.25,8.8-17.63,5.81-.28,39.12,15.23,44.14,20.29,3.39,3.42,44.01,50.61,45.95,53.63,8.4,13.12,5.51,34.17,17.85,46.59,12.51,12.6,60.64,45.54,69.92,58.96,26.52,38.35,4.74,33.63,50.61,72.33,14.03,11.84,15.06,26.93,21.91,33.79,6.75,6.76,26.17,8.39,34,21.64,15.16,25.64-12.01,45.34,34.75,38.47-.85,1.52.88,4.52,0,5.86-27.38,41.43-50.07,50.82-82,82.01,18.75-34.77-5.39-28.74-20.55-40.95-93.6-75.4-125.49-164.14-207.73-237.63-6.66-5.95-4.34-17.07-9.67-20.74-8.35-5.74-24.48-2.63-37.8-13.66-21.32-17.67,11.42-57.99-34.66-50.2,1.03-3.13-1.03-8.58,0-11.72.91-2.79,9.04-9.33,11.71-17.57,1.02-3.15-1.02-8.57,0-11.72.57-1.77-.57-4.09,0-5.86,10.08-3.38,15.58-10.93,5.86-17.57.61-1.82-.68-4.28,0-5.86,16.98,2.34,13.87-13.49,19.88-21.11,4.59-5.82,17.05-13.99,21.11-19.89Z"/>
  <path class="cls-6" d="M527.43,467.66l-49.66,99.71c-9.32,28.6-12.68,58.9-20.62,87.74-.84,3.04-13.86,12.44,0,17.57v11.72c0,11.62-.72,23.58,0,35.15-17.75-3.26-11.26,8.97-11.72,20.23-.6,14.69.46,29.54-.03,44.17-16.67,5.66-11.18-14.91-20.76-16.91-2.68-.56-48.5,7.3-53.92,9.58-25.58,10.78-26.96,51.01-52.06,65.12-27.04,15.21-29.21-8.02-44.54-4.28-1.8.44-30.97,16.86-32.24,18.21-6.15,6.55-5.27,22.38-12.81,31.17-9.44,11-27.17,9-34.13,15.68-5.48,5.26-4.18,17.09-16.8,27.13-19.98,15.89-70.19,14.05-95.85,30.06h-5.86c7.49-34.87,19.89-54.75,41-82.01l5.86-5.86c116.43-139.69,274.04-271.72,404.12-404.18Z"/>
  <path class="cls-5" d="M732.42,1047.58c3.21,3.13,45.2,7.88,54.78,12.06,19.18,8.37,36.8,29.44,44.79,34.8-21.03,11.07-21.27,48.42-39.2,58.92-8.49,4.97-21.31,3.76-30.69,8.86-13.65,7.43-24.49,28.57-39.21,36.92-41.1,23.29-98.33,46.06-139.07,71.79-17.94,11.33-18.93,33.27-29.55,40.74-7.26,5.1-53.29,26.51-69.7,35.73-17.11,9.61-43.47,12.69-53.55,28.72-3.43,5.46-2.6,16.49-3.21,17.11-3.78,3.87-34.08-19.18-29.23,5.82-15.48-15.64-34.24-28.16-52.71-46.86,19.35,2.27,16.5-2.52,22.85-15.38,7.94-16.06,25.37-47.8,41.81-57.61,18.19-10.85,36.7-7.13,53.88-20.62,7.65-6.01,10.36-18.39,18.73-23.88,10.26-6.72,23.5-4.42,33.01-13.89,6.91-6.88,8.67-22.78,12.57-25.52,8.2-5.76,48.93-12.38,66.13-24.64,21.17-15.09,32.06-30.28,61.19-50.1,14.36-9.77,19.71-25.95,29.96-34.46,20.58-17.06,41.71-5.28,46.42-38.52Z"/>
  <path class="cls-9" d="M1769.08,766.41c37.71,37.8,70.1,59.62,105.42,105.44.82,1.06,17.92-3.51,11.71,17.57-7.1-7.83-10.84-16.99-11.71-17.57-12.18-8.14-48.87,37.21-61.63,46.73-46.84,34.95-99.87,46.86-143.03,79.54-12.34,9.34-17.83,25.33-27.29,31.29-13.15,8.29-36.84,3.72-42.21,22.22-8.82,30.39,10.04,52.91-36.26,66.24-19.04-25.11-81.33-65.04-111.28-76.15-2.2-17.45,20.17-11.64,34.94-20.73,49.25-30.3,98.1-64.01,143.95-102.03,22.99-19.06,39.94-44.57,71.06-63.65,16.59-10.17,35.86-10.63,49.22-21.06,14.87-11.61,42.44-55.11-.51-44.43-2.45-9.43,6.91-22.06,5.89-29.26h5.86l5.86,5.86Z"/>
  <path class="cls-11" d="M562.57,959.71c16.24,18.71,45.4,35.14,58.57,58.58-3.29,1.3-30.53,43.38-43.87,52.78-30.3,21.34-71.24,30.41-96.56,44.25-11.58,6.33-106.82,93.07-120.15,108-5.33,5.97-7.08,20.81-9.74,22.5-10.12,6.46-58.91-4.5-68.66,1.6-8.14,5.09,1.6,28.91-6.58,34.47-15.37-15.54-30.89-30.5-46.85-46.86-9.69-9.93-19.61-25.14-29.28-35.15,8.44-19.26,33.07-12,46.55-20.83,9.71-6.36,30.92-38.59,47.38-46.31,10.19-4.78,22.45-1.49,32.46-8.53,9.01-6.34,10.67-23.78,17.08-29.76,9.48-8.83,23.96-5.43,34.04-11.36,7.33-4.31,15.29-25.99,31.16-34.74,20.69-11.4,57.27-15.11,77.88-27.54,17.99-10.85,21.61-35.92,29.65-41.01,10.65-6.74,25.66,5.9,29.26,3.4,2.81-1.95-.41-28.61,17.64-23.48Z"/>
  <path class="cls-14" d="M644.56,1018.29v5.86l-5.86,5.8c20.87-4.06,47.15,15.81,64.43.06,2,.46,4.17,5.31,5.86,5.86,3.31,7.69,16.39,9.95,17.57,0,10.18,3.26,4.32,10.22,5.86,11.72-4.72,33.23-25.85,21.45-46.42,38.52-10.26,8.5-15.61,24.68-29.96,34.46-29.12,19.82-40.02,35.01-61.19,50.1-17.19,12.25-57.93,18.88-66.13,24.64-3.9,2.74-5.67,18.64-12.57,25.52-9.51,9.47-22.75,7.17-33.01,13.89-8.37,5.48-11.08,17.87-18.73,23.88-17.18,13.49-35.69,9.77-53.88,20.62-16.44,9.81-33.87,41.55-41.81,57.61-6.35,12.86-3.5,17.65-22.85,15.38-1.94-1.96-3.92-3.89-5.86-5.86l-5.86-5.86c-19.42-19.71-38.16-37.95-58.57-58.58,8.19-5.57-1.56-29.38,6.58-34.47,9.75-6.1,58.53,4.87,68.66-1.6,2.66-1.7,4.4-16.53,9.74-22.5,13.33-14.93,108.57-101.67,120.15-108,25.32-13.84,66.26-22.91,96.56-44.25,13.34-9.4,40.58-51.47,43.87-52.78,4.91-1.95,17.06,1.61,23.43,0Z"/>
  <path class="cls-14" d="M738.27,256.79c-8.16,18.96,13.97,103.54,22.99,114.64,8.77,10.8,27.72,9.08,34.27,15.53,4.94,4.87,12.95,37.44,22.18,51.03,10.56,15.56,35.46,30.46,43.72,44.12,7.15,11.82,5.82,25.41,11.16,34.26,4.37,7.25,30.66,26.05,40.63,42.85,6.36,10.73,4.32,24.72,7.93,30.11,4.7,7,32.03,9.45,38.14,14.58,5.48,4.6,6.31,21.37,15.68,28.26,15.9,11.7,38.56-6.06,32.7,22.93-14.63,14.68-22.84,30.42-29.28,46.86-6.03,15.38-11.79,31.36-17.57,46.86-28.32,14.09-20.8-14.98-30.01-31.5-6.9-12.37-22.9-21.22-31.11-33.32-37-54.51-61.07-105.6-111.46-152.12-8.27-7.63-22.86-9.13-29.24-17.62-12.62-16.8-4.5-48.77-37.46-62.12l-65.29-113.37c2.01-1.89,3.8-4.01,5.86-5.86,18.88-16.97,25.17-22.76,41-41,11.25-12.96,24.43-24.31,35.14-35.15Z"/>
  <path class="cls-3" d="M931.55,86.91c.62,3.67-.92,8.65,0,11.72-6.44,2.84-18.28,2.81-23.43,5.86-2.95,1.75-4.54,1.8-5.86,5.86-1.39,4.26.97,12.19-.06,17.54l-14.14-11.4c-49.16,28.27-2.73,19.95,11.27,34.89,7.59,8.1,8.86,28.71,16.63,41.93,15.51,26.38,50.39,58.38,61.67,78.9,11.84,21.55,10.46,48.23,27.52,72.05,15.48,21.61,43.97,33,60.71,50.58,19.49,20.46,51.24,74.83,70.92,93.08,16.05,14.88,40.98,13.49,40.75,50.04-17.56,8.31-61.62,31.45-76.14,41-6.66-15.53-60.27-54.73-63.14-59.8-4.7-8.31,1.36-27.47-6.8-41.59-3.03-5.24-21.45-14.09-29.61-24.59-11.97-15.4-13.74-32.67-23.38-46.88-12.7-18.73-41.29-36.18-55.33-55.96-9.29-13.09-21.6-50.76-28.12-56.78-8.12-7.5-27.11-4.68-37.14-12.7-9.25-7.4-9.64-25.4-17.16-35.54-21.2-28.59-45.69-16.04-20.45-70.35,13.1-28.18,79.63-82.26,111.28-87.87Z"/>
  <path class="cls-2" d="M509.86,889.42c-15.23-.22-28.52,6.75-40.61,15.05-67.04,46.01-137.84,120.64-209.06,159.93-13.61,7.51-29.05,6.37-43,15.57-20.19,13.32-31.82,51.02-35.98,54.73-2.75,2.45-48.61-2.07-57.9-5.11-16.18-19.05-37.41-50.58-43.93-76.16-9.29-36.45-10.87-56.72-2.92-93.71h5.86c3.35,22.84-4.85,57.3.13,77.99,1.06,4.4,10.26,3.56,11.49,8.01,2.55,9.19-6.28,29.58,8.76,25.22,25.56-7.42,52.05-59.11,83.05-75.13,15.62-8.07,38.83-9.54,48.54-15.88,23.92-15.62,70.2-63.91,97.63-78.09,13.68-7.07,31.27-4.53,40.84-11.85,10.69-8.18,8.87-30.48,17.92-36.23,12.05-7.65,32.41-1.92,43.1-8.2,3.11-1.83,28.22-50.19,29.23-55.7,24.24,26.64,28.83,68.36,46.85,99.58Z"/>
  <path class="cls-14" d="M1681.23,672.68c24.5,23.6,43.88,50.02,64.43,70.29,4.99,4.92,11.72,11.7,17.57,17.57h-5.86c-.15-1.05-10.74-17.16-11.71-17.57-30.17-13-58.38,31.79-82.36,49.42-30.68,22.55-103.58,59.19-128.22,82.64-19.26,18.33-37.14,52.29-64.78,64.08-12.43,5.3-23.99.71-38.3,8.56-21.47,11.78-22.76,43.08-26.07,64.79-16.26-1.87-33.85-18.18-29.24,11.69-5.75-.27-11.82-.29-17.57,0-12.93-24.4-46.4-13.25-64.43-17.57-13.9-3.34-35.7-17.93-53.95-18.05l-22.16-22.93c16.05-1.19,29.16,8.91,44.41,11.17,45.36,6.74,25.89-8.93,40.22-23.12,10.01-9.91,24.96-2.52,31.54-6.59,3.24-2,3.4-18.07,12.87-25.21,15.81-11.92,68.73-25.26,90.7-44,15.94-13.6,21.44-49.76,41.6-63.83s46.24-7.93,60.84-15.3c9.31-4.7,15.79-33.58,35.34-46.65,11.71-7.82,33.77-10.75,39.43-16.31,5.21-5.12,3.17-17.66,10.96-22.61,11.17-7.1,45.42-.17,29.84-21.91-1.91-2.66-12.74,2.81-10.15-6.73,13.56-8.41,18.62-11.86,35.07-11.83Z"/>
  <path class="cls-2" d="M1874.5,871.85c.88.59,4.61,9.75,11.71,17.57,22.93,25.27,27.39,38.23,35.14,70.29l5.86,5.86c.54,3.72-.35,7.9,0,11.72l-11.66,8.7-14.6-49.64c-15.31,9.18-5.49,51.8-15.53,57.73-5.77,3.41-22.06-1.56-34.27,3.79-7.7,3.37-19.97,21.85-29.57,29-9.04,6.74-22.87,7.01-28.91,12.07-11.31,9.45-7.31,32.81-15.55,38.51-10.95,7.58-55.99,10.59-75.55,22.69-12.85,7.95-20.16,27.16-27.96,33.51-22.49,18.32-56.58,33.3-74.37,60.39-1.55-9.74-28.61-67.53-35.14-76.15,46.3-13.33,27.44-35.85,36.26-66.24,5.37-18.51,29.06-13.93,42.21-22.22,9.45-5.96,14.95-21.94,27.29-31.29,43.16-32.68,96.18-44.59,143.03-79.54,12.76-9.52,49.45-54.87,61.63-46.73Z"/>
  <path class="cls-3" d="M509.86,889.42c12.24,21.21,38.02,53.36,52.71,70.29-18.05-5.13-14.82,21.53-17.64,23.48-3.6,2.5-18.61-10.14-29.26-3.4-8.04,5.09-11.66,30.16-29.65,41.01-20.61,12.44-57.19,16.14-77.88,27.54-15.87,8.75-23.83,30.43-31.16,34.74-10.09,5.93-24.56,2.53-34.04,11.36-6.42,5.98-8.07,23.41-17.08,29.76-10.02,7.05-22.28,3.75-32.46,8.53-16.46,7.72-37.67,39.96-47.38,46.31-13.48,8.83-38.11,1.56-46.55,20.83-9.18-9.5-25.8-19.81-35.14-29.29-14.34-14.55-26.64-24.1-41-41,9.28,3.04,55.15,7.56,57.9,5.11,4.16-3.71,15.79-41.41,35.98-54.73,13.95-9.2,29.4-8.06,43-15.57,71.21-39.29,142.01-113.92,209.06-159.93,12.1-8.3,25.38-15.27,40.61-15.05Z"/>
  <path class="cls-9" d="M1282.96,1709.5c-1.15,1.58.76,8.36,0,11.72-13.57,14.31-16.55,25.01-26.09,35.41-14.06,15.33-30.51,32.53-50.05,40.74,18.1-35.73-16.45-28.45-23.93-38.91-9.4-13.16-.85-42.44-11.57-57.38-9.03-12.57-26.48-6.9-35.31-17.39-7.29-8.66-5.23-25.16-10.83-34.58-8.4-14.11-67.83-57.19-79.25-74.51-10.32-15.66-8.27-32.43-20.62-49.67-17.19-24.02-63.51-49.44-93.77-43.87,16.78-18.69,42.74-58.81,52.71-82.01,21.67,4.98,43.16,15.79,55.97,34.82,11.21,16.66,9.28,36.04,17.47,46.97,8.12,10.84,28.23,11.32,39.93,18.64,35.97,22.47,67.31,107.34,97.21,137.09,8.43,8.39,21.45,8.93,30.06,16.8,16.36,14.96,22.49,53.25,58.07,56.15Z"/>
  <path class="cls-6" d="M1915.5,1041.72c-1.91,2.85,1.66,17.67,0,23.43l-8.06.15c-6.43-5.24-.28-14.07-9.45-11.83.48,15.27-5.87,26.92,11.65,23.4-18.77,48.85-37.16,58.71-70.28,93.72l-2.99-5.8c-9.08-1.36-10.03-.41-8.67,8.67l5.8,2.99c-92.91,98.37-190.13,192.59-286.99,287.03-1-2.59-3.23-5.07-5.86-5.86,3.23-11.86,7.58-23.59,11.71-35.15,24.54-68.61,46.05-92.25,46.85-169.87,13.86-2.09,41.65-2.48,52.52-8.99,6.61-3.96,10.77-18.92,20.57-26.28,17.92-13.46,49.89-24.53,64.76-34.81,7.9-5.46,58.5-45.72,61.42-49.85,7.97-11.23,10.58-36.39,12.09-37.68,7.45-6.4,33.93,4.87,43.72,4.53,2.21-.08,36.36-9.69,37.82-11.01,2.58-2.34-27.27-52.03,23.37-46.79Z"/>
  <path class="cls-11" d="M779.27,215.78c-8.85,10.7-4.04,16.71-1.26,27.24,3.5,13.25,24.04,74.37,30.18,81.46,9.27,10.7,25.18,8.65,33.92,15.95,32.51,27.17,82.64,128.83,110.3,167.87,22.34,31.52,47.97,30.97,64.4,46.88,13.25,12.83,19.93,47.22,37.72,58.92-9.73,7.81-38.59,32.71-46.85,41,5.86-28.99-16.8-11.23-32.7-22.93-9.37-6.89-10.2-23.66-15.68-28.26-6.12-5.14-33.44-7.58-38.14-14.58-3.62-5.38-1.57-19.38-7.93-30.11-9.97-16.8-36.26-35.6-40.63-42.85-5.34-8.85-4.01-22.44-11.16-34.26-8.26-13.66-33.16-28.56-43.72-44.12-9.23-13.59-17.24-46.16-22.18-51.03-6.56-6.46-25.51-4.74-34.27-15.53-9.02-11.11-31.16-95.68-22.99-114.64,13.48-13.64,27.73-27.35,41-41Z"/>
  <path class="cls-9" d="M820.27,174.78c-25.25,54.31-.76,41.76,20.45,70.35,7.52,10.14,7.91,28.13,17.16,35.54,10.03,8.03,29.02,5.2,37.14,12.7,6.51,6.02,18.83,43.69,28.12,56.78,14.03,19.78,42.62,37.23,55.33,55.96,9.64,14.21,11.41,31.48,23.38,46.88,8.16,10.5,26.58,19.35,29.61,24.59,8.16,14.12,2.1,33.28,6.8,41.59,2.87,5.07,56.49,44.27,63.14,59.8-13.99,9.21-33.39,24.35-46.85,35.15-17.79-11.7-24.47-46.09-37.72-58.92-16.43-15.92-42.07-15.36-64.4-46.88-27.66-39.03-77.79-140.69-110.3-167.87-8.73-7.3-24.65-5.25-33.92-15.95-6.14-7.09-26.68-68.22-30.18-81.46-2.78-10.53-7.59-16.54,1.26-27.24,1.92-1.98,3.99-3.87,5.86-5.86,12.18,1.57,13.33.47,11.71-11.72,3.5-3.82,4.48-22.42,23.43-23.43Z"/>
  <path class="cls-4" d="M1599.23,1194.02c17.79-27.09,51.88-42.07,74.37-60.39,7.8-6.35,15.1-25.56,27.96-33.51,19.56-12.09,64.6-15.11,75.55-22.69,8.24-5.7,4.24-29.05,15.55-38.51,6.05-5.06,19.87-5.33,28.91-12.07,9.59-7.15,21.87-25.63,29.57-29,12.22-5.35,28.5-.38,34.27-3.79,10.04-5.93.23-48.55,15.53-57.73l14.6,49.64,11.66-8.7c1.14,12.44,2.56,51.27.08,60.58-1.65,6.19-11.45,3.34-11.79,3.85-50.64-5.24-20.79,44.46-23.37,46.79-1.46,1.32-35.61,10.93-37.82,11.01-9.78.34-36.26-10.93-43.72-4.53-1.5,1.29-4.11,26.45-12.09,37.68-2.93,4.12-53.52,44.38-61.42,49.85-14.87,10.28-46.84,21.35-64.76,34.81-9.8,7.36-13.96,22.32-20.57,26.28-10.87,6.51-38.66,6.89-52.52,8.99.18-17.37,2.51-42.83,0-58.58Z"/>
  <path class="cls-11" d="M1007.69,1322.89c46.07-7.79,13.33,32.53,34.66,50.2,13.32,11.04,29.45,7.92,37.8,13.66,5.33,3.67,3.01,14.79,9.67,20.74,82.25,73.5,114.13,162.23,207.73,237.63,15.16,12.21,39.3,6.18,20.55,40.95-1.97,1.93-3.88,3.93-5.86,5.86-7.74,7.87-23.21,9.21-29.28,17.57-35.58-2.9-41.71-41.19-58.07-56.15-8.61-7.87-21.63-8.41-30.06-16.8-29.89-29.75-61.23-114.62-97.21-137.09-11.71-7.31-31.82-7.8-39.93-18.64-8.19-10.93-6.25-30.31-17.47-46.97-12.81-19.03-34.3-29.84-55.97-34.82,2.95-6.87,3.2-16.22,5.86-23.43,13.85,1.78,15.85-1.57,5.86-11.72,4.44-12.35,7.07-26.91,11.71-41Z"/>
  <path class="cls-4" d="M978.4,86.91c22.84,8.74,28.04,36.04,40.88,49.91,19.98,21.6,56.55,45.26,75.45,70.98,13.46,18.32,24.49,52.62,35.8,69.63,13.56,20.4,45.02,44.22,55.37,61.78,6.3,10.69,5.94,25.08,12.51,34.35,6.79,9.59,29.51,18.62,37.87,32.42,7.33,12.1,6.44,25.52,14.62,38.09,12.92,19.85,48.02,25.02,43.77,58.73-14.31,1.32-43.66,7.65-58.57,11.72,6.9-19.41-13.82-18.26-16.7-27.05-4.67-14.29,4.04-36.09-3.71-49.18s-32.59-8.76-37.11-12.65c-5.05-4.35-3.45-32.13-8.21-38.67-2.6-3.59-17.84-5.96-25.28-12.79-10.55-9.69-12.68-25.78-22.78-35.8-9.71-9.64-23.25-10.55-29.64-17.22-7.4-7.72-7.01-23.25-14.44-32.39-8.23-10.13-23.96-10.81-28.1-15.86-4.72-5.76-7.43-31.18-16.37-45.14-23.56-36.75-86.66-77.18-102.22-129.14-.92-3.06.62-8.04,0-11.72,1.89-.33,3.94.27,5.86,0,12.41-1.78,27.82.85,41,0ZM1271.22,479.41h-17.51v11.65h17.51v-11.65Z"/>
  <path class="cls-3" d="M931.55,1481.05c30.26-5.56,76.58,19.86,93.77,43.87,12.34,17.25,10.3,34.01,20.62,49.67,11.42,17.32,70.85,60.4,79.25,74.51,5.6,9.42,3.54,25.92,10.83,34.58,8.82,10.49,26.28,4.81,35.31,17.39,10.72,14.93,2.17,44.22,11.57,57.38,7.48,10.46,42.03,3.18,23.93,38.91-.51,1-10.11,15.25-11.71,17.57-6.72,1.93-24.52,13.55-29.28,17.57-28.52.29,5.73-14.5-4.15-33.49-5.56-10.7-41.3-39.89-52.85-50.06-25.73-62.29-93.87-123.14-140.45-175.87-8.21-9.29-26.48-47.32-40.42-49.7-12.27-2.09-28.48,15.65-37.4-7.19,11.17-6.55,31.72-24.81,41-35.15Z"/>
  <path class="cls-12" d="M568.42,426.66c-26.55,41.47-25.65,75.65-29.28,123.01-9.91,129.13,4.75,181,78.6,284.73,11.58,16.26,16.14,3.9,20.97,31.58,42.35,19.1,97.59,75.12,139.38,86.72,9.13,2.54,20.21-6.23,24.61,1.14-17.07,10.31-40.07,20.91-58.57,29.29-59.77,19.47-30.39-27.96-58-50.36-14.13-11.46-32.65-5.25-42.35-16.64-4.28-5.02-3.12-39-5.07-50.15-97.46-43.96-80.14-84.56-137.99-151.93-6.36-7.4-31.01-32.85-43.57-29.66v-29.29c7.94-28.84,11.3-59.14,20.62-87.74l49.66-99.71c12.54-12.77,24.98-38.53,41-41Z"/>
  <path class="cls-7" d="M1564.09,555.53c20.01,20.62,46.17,36.51,58.57,64.43-13.74-6.8-38.78-19.24-52.71-23.43-18.17-5.47-36.27-11.39-55.48-12.01-31.39-1.02-60.45,20.59-61.66-17.28,11.03-1.95,34.59-23.99,35.14-35.15,21.78,7.09,32.17,11.4,52.82,20.78,8.17,3.71,14.18,10.19,23.32,2.65Z"/>
  <path class="cls-1" d="M498.14,1492.76c14.47-5.68,34.17,5.21,41,5.86-3.32,2.92-7.28,5.22-11.71,5.86-7.33,1.05-19.25-3.56-23.43,5.86-11.69-11.68-24.61-24.59-35.14-35.15,14.65,3.14,12.4-5.03,11.74-17.59,30.58-1.6,5.46,31.88,17.55,35.16Z"/>
  <path class="cls-9" d="M1142.4,1867.66c-54.85,48.63-88.83,68.17-163.99,58.58v-5.86c29.91,2.66,53.92-3.75,82-11.72,34.42-9.77,52.81-20.03,76.14-46.86h5.86v5.86Z"/>
  <path class="cls-9" d="M1025.26,75.2v5.86c-20.98-2.53-34.49,5.06-46.85,5.86-13.18.85-28.59-1.78-41,0,20.63-22.55,63.39-14.77,87.85-11.72Z"/>
  <path class="cls-2" d="M855.41,1861.8c33.54,28.03,78.09,54.58,122.99,58.58v5.86c-47.6-6.08-97.63-20.95-122.99-64.43Z"/>
  <path class="cls-2" d="M1025.26,75.2c42.49,5.3,61.76,14.7,97.28,37.06l90.14,97.67c-57.37-52.34-103.3-118.74-187.42-128.87v-5.86Z"/>
  <path class="cls-4" d="M1909.64,1076.87c-17.52,3.52-11.18-8.13-11.65-23.4,9.17-2.24,3.01,6.59,9.45,11.83l8.06-.15c-1.74,6.03-4.69,8.67-5.86,11.72Z"/>
  <path class="cls-14" d="M1282.96,1721.21c.76-3.35-1.15-10.14,0-11.72,6.07-8.36,21.54-9.7,29.28-17.57-9.15,8.93-20.66,20.19-29.28,29.29Z"/>
  <path class="cls-11" d="M1195.11,1814.94c-12.02,17.4-36.38,38.23-52.71,52.72v-5.86c1.12-19.29,17.15-15.18,21.52-19.34,3.41-3.24,1.31-9.45,1.9-9.95,4.76-4.02,22.56-15.65,29.28-17.57Z"/>
  <path class="cls-4" d="M1839.36,1170.59c-1.9,2.01-3.97,3.86-5.86,5.86l-5.8-2.99c-1.36-9.08-.41-10.03,8.67-8.67l2.99,5.8Z"/>
  <path class="cls-5" d="M703.13,291.93c-15.83,18.24-22.12,24.04-41,41,13.34-14.18,21.38-36.01,41-41Z"/>
  <path class="cls-11" d="M796.84,198.21c1.62,12.18.47,13.29-11.71,11.72,4.32-4.59,10.33-10.21,11.71-11.72Z"/>
  <path class="cls-5" d="M199.44,1199.88c9.67,10.01,19.59,25.21,29.28,35.15l-64.43-64.43c9.34,9.48,25.96,19.78,35.14,29.29Z"/>
  <path class="cls-4" d="M117.45,877.7c1.67-2.16,4.12-3.77,5.86-5.86l-5.86,5.86Z"/>
  <path class="cls-11" d="M1769.08,766.41l-5.86-5.86c1.95,1.96,3.91,3.9,5.86,5.86Z"/>
  <path class="cls-4" d="M1927.21,965.57l-5.86-5.86c.1.4,5.24,1.66,5.86,5.86Z"/>
  <path class="cls-5" d="M340.01,1346.32c-1.94-1.96-3.92-3.89-5.86-5.86l5.86,5.86Z"/>
  <path class="cls-1" d="M457.14,1463.47c-1.95-1.96-3.91-3.9-5.86-5.86l5.86,5.86Z"/>
  <path class="cls-8" d="M995.97,1299.46c2.05,5.77,5.97,9.64,11.71,11.72-1.03,3.14,1.03,8.59,0,11.72-4.64,14.1-7.27,28.65-11.71,41-.55,1.54-3.77,6.05-5.86,11.72-2.66,7.21-2.9,16.56-5.86,23.43-9.97,23.2-35.93,63.31-52.71,82.01-9.28,10.34-29.83,28.6-41,35.15-7.64,4.48-43.94,20.52-52.71,23.43-8.42,2.79-34.52,10.87-41,11.72-12.58,1.64-27.74-.72-41,0-.75.04-9.09-.02-11.71,0-20.75.18-44.14,1.59-64.43,0,7.43-27.49-23.92-16.62-46.85-17.57-5.82-.24-11.79.48-17.57,0,12.32-5.32,32.94-21.36,44.28-23.33,13.61-2.37,41,6.54,42.74,5.24,2.11-1.57,3.33-12.64,9.25-17.24,13.83-10.76,36.43-10.49,32.59-34.96,2.97-1.12,8.84,1.14,11.71,0-4.7,21.43,30.88,10.62,38.13-.18,4.42-6.58,1.84-15.82,2.87-17.39,25.2-38.45,94.16-60.53,128.85-128.87,41.87-3.31,72.54-29.18,46.85-70.29,11.69,22.55,14.76,28.29,23.43,52.72Z"/>
  <path class="cls-4" d="M837.84,1539.62c21.94,12.85,45.8,18.82,61.72,40.78,13.08,18.04,10.05,35.21,17.64,46.8,4.58,6.99,16.67,8.78,22.92,18.09,5.19,7.74,5.22,22.86,10.25,27.8,6.08,5.97,19.98,2.99,28.42,11.23,9.26,9.04,11.83,32.89,20.25,42.61,14.12,16.3,56.95,46.62,73.27,68.87,7.6,10.36,8.65,31.36,17.39,39.62,12.04,11.38,40.12,4.35,46.84,26.37-23.32,26.84-41.72,37.09-76.14,46.86,6.9-29.92-11.81-21.39-25.92-35.58-17.42-17.52-34.06-53.74-52.95-76.08-32.75-38.74-91.64-86.82-120.45-125.39-15.08-20.2-21.3-56.93-33.67-77.62-11.03-18.45-32.75-18.98-30.57-42.65,6.48-.84,32.58-8.92,41-11.72Z"/>
  <path class="cls-12" d="M744.13,1463.47c3.84,24.47-18.75,24.2-32.59,34.96-5.92,4.6-7.14,15.67-9.25,17.24-1.74,1.3-29.13-7.61-42.74-5.24-11.34,1.97-31.96,18.01-44.28,23.33-30.72-2.54-63.34-8.25-87.85-29.29,4.43-.64,8.39-2.94,11.71-5.86,9.45.9,19.67-.18,29.28,0,67.08,1.24,114.27-11.88,175.71-35.15Z"/>
  <path class="cls-12" d="M632.85,1533.77c22.93.95,54.28-9.92,46.85,17.57-14.93-1.17-53.79-3-46.85-17.57Z"/>
  <path class="cls-12" d="M755.84,1551.34h-11.71c2.63-.02,10.97.04,11.71,0Z"/>
  <path class="cls-10" d="M1452.81,567.24c1.21,37.87,30.27,16.26,61.66,17.28,19.2.62,37.31,6.54,55.48,12.01-17.73,37.82-55.78,42.31-82.23,61.27-18.75,13.44-23.21,35.87-35.15,46.82-24.6,22.57-73.18,41.03-98.82,59.35-1.85,1.32-31.37,29.89-32.68,31.75-9.02,12.75-7.36,37.62-20.42,44.02-12.11,5.93-29.01.94-42.73,4.13-38.28,8.89-61.59,60.1-84.53,67.75-18.55,6.19-29.57,3.59-25.16-16.35l-35.12,11.72c-34.24-44.97,1.86-36.4,12.31-49.15,8.91-10.86,2.4-33.23,16.68-47.8,7.86-8.02,20.87-9.12,29.91-16.93,42.69-36.88,27.75-20.36,74.17-42.99,13.09-6.38,31.12-25.41,46.6-35.4,10.92-7.05,28.01-7.87,36.93-15.78,11.59-10.29,10.39-34.28,23.53-41.2,15.71-8.28,32.89,9.31,46.94.6,15.77-9.77,5.05-60.12,46.76-50.12l-11.7-40.97c5.63-.67,12.28.94,17.57,0Z"/>
  <path class="cls-10" d="M1130.68,930.42l46.84.04c-3.36,12.45-5.69,22.85.02,35.1-17.18-10.98-31.16-22.28-46.85-35.15Z"/>
  <path class="cls-10" d="M1359.1,1024.15c-1.06.05-6.28,5.36-11.71,5.86-3.82.35-8.04-.56-11.71,0,5.36-15.26-22.07-12.73-41-17.57v-5.86c18.03,4.33,51.5-6.82,64.43,17.57Z"/>
  <path class="cls-7" d="M1435.24,567.24l11.7,40.97c-41.7-10-30.99,40.35-46.76,50.12-14.05,8.71-31.23-8.88-46.94-.6-13.13,6.92-11.93,30.91-23.53,41.2-8.92,7.91-26.01,8.73-36.93,15.78-15.48,10-33.52,29.03-46.6,35.4-46.41,22.62-31.48,6.1-74.17,42.99-9.04,7.81-22.05,8.91-29.91,16.93-14.28,14.57-7.77,36.94-16.68,47.8-10.46,12.75-46.55,4.17-12.31,49.15v5.86c-4.17-3.8-14.36-5.42-20.47-11.57-17.48-17.59-46.29-51.32-49.81-76.3,19.13.88,10.02-10.27,17.51-19.13,23.59-27.93,15.89-33.44,28.93-54.5,5.54-8.96,21.69-14.32,29.66-23.05,13.46-14.75,33.03-37.4,41.04-55.61,13.98,0,44.4-23.22,52.71-35.15,10.25,1.58,13.89-1.25,11.71-11.72,3.93-1.89,7.75-4.05,11.71-5.86,17.51-7.97,41.2-13.44,52.71-29.29,16.52.35,18.98-3.81,29.28-5.86,42.58-8.47,74.58-12.52,117.14-17.57Z"/>
  <path class="cls-14" d="M1649.01,666.83c3.8,1.95,3.8,3.91,0,5.86v-5.86Z"/>
  <path class="cls-8" d="M1323.96,502.81l17.54,35.11c-11.36,1.1-36.37,3.95-40.29,15.36-10.95,31.89,19.05,8.45,16.89,31.54-10.31,2.05-12.77,6.2-29.28,5.86-.95-.02-6.07-7.44-13.69-6.29-4.14.62-3.75,9.31-8.35,11.73-11.99,6.31-31.14,2.87-30.67,23.86-3.96,1.8-7.78,3.97-11.71,5.86-2.01.96-8.67-1.83-11.09.56-2.58,2.56.41,9.67-.62,11.15-8.31,11.92-38.73,35.14-52.71,35.15-1.05,0-7.38-7.84-13.71-6.47-5.98,1.3-4.83,11.93-9.65,15.07-8.42,5.48-22.93,2.32-33.76,7.5-22.51,10.75-47.2,38.05-77.55,24.92-5.58,18.36,4.91,41.76,5.3,56.09.07,2.77-11.36,2.22-11.52,5.48-.5,10.02,19.3,34.9,17.9,49.71-25.3-13.08-41.85-98.34-58.57-123.01,6.45-16.44,14.65-32.18,29.28-46.86,8.27-8.29,37.12-33.2,46.85-41,13.47-10.8,32.87-25.94,46.85-35.15,14.52-9.55,58.58-32.69,76.14-41,12.5-5.92,46.61-20.17,58.57-23.43,14.9-4.07,44.26-10.39,58.57-11.72,9.52-.88,19.63.36,29.28,0Z"/>
  <path class="cls-12" d="M1464.52,520.38c1.17,2.43,3.3,5.08,5.86,5.86,6.2,1.89,11.64,3.93,17.57,5.86-.55,11.16-24.11,33.2-35.14,35.15-5.29.94-11.94-.67-17.57,0-42.56,5.06-74.56,9.1-117.14,17.57,2.16-23.09-27.84.35-16.89-31.54,3.92-11.41,28.93-14.26,40.29-15.36l-17.54-35.11c44.23-1.66,100.01-1.78,140.56,17.57Z"/>
  <path class="cls-7" d="M1470.38,526.24c-2.56-.78-4.69-3.42-5.86-5.86,2.28,1.09,4.11,3.93,5.86,5.86Z"/>
  <path class="cls-5" d="M1113.11,1153.02c17.06-4.12,9.4,13.6,17.5,20.4,6.18,5.19,21.5,6.16,32.53,14.54,8.76,6.65,11.41,18.49,18.7,23.83,10.31,7.56,32.28,8.74,39.5,17.47,7.13,8.63,4.98,26.99,10.35,33.6,4.21,5.19,20.65,5.97,30.65,19.16,10.68,14.1,10.16,35.54,20.44,49.83,10.7,14.88,48.19,36.11,62.54,51.67,15.62,16.93,49.39,60.74,63.16,80.34,16.14,22.97,21.62,64.97,50.2,64.09-6.13,15.36-19.25,31.34-29.3,46.8-12.13,8.11-18.32,3.82-29.28,23.43-46.76,6.87-19.59-12.83-34.75-38.47-7.83-13.24-27.25-14.87-34-21.64-6.85-6.86-7.87-21.95-21.91-33.79-45.88-38.69-24.09-33.97-50.61-72.33-9.28-13.42-57.4-46.36-69.92-58.96-12.34-12.42-9.45-33.47-17.85-46.59-1.93-3.02-42.55-50.21-45.95-53.63-5.03-5.06-38.34-20.57-44.14-20.29-7.79.38,3.24,19.67-8.8,17.63l-5.92-58.55c1-1.45-2.11-9.69,1.8-15.61,2.99-4.53,18.54-13.6,21.51-22.52l-5.74-2.88c1.97-1.94,3.88-3.93,5.86-5.86,7.03-6.87,21.42-9.81,23.43-11.72Z"/>
  <path class="cls-1" d="M1253.68,1053.43c39.05,21.6,94.6,29.02,134.71,46.86,123.2,54.81,165.6,177.36,155.11,304.55-.88,10.64-10.56,20.21,8.88,17.62-4.13,11.56-8.48,23.29-11.71,35.15-2.53-.76-9.44,1.83-11.13-.34-4.32-5.54,2.89-36.63-.93-40.35-2.37-2.31-47.78-9.09-61.02-23.88-14.6-16.3-3.81-42.69-15.32-60.83-7.33-11.55-24.84-13.17-34.77-23.8-7.52-8.06-9.73-21.53-17.25-29.61-18.84-20.27-59.41-51.19-73.11-73.32-12.3-19.87-5.7-40.67-15.33-54.96-10.03-14.9-32.22-9.25-43.46-20.97-10.29-10.72-17.16-55.35-26.06-61.8-15.87-11.51-26.28,23.07-47.18,9.11,21.63-12.42,37.99-15.52,58.57-23.43Z"/>
  <path class="cls-1" d="M1113.11,1153.02c-2.01,1.91-16.39,4.84-23.43,11.72,13.85-18.84,30.78-37.78,52.71-46.86-13.06,11.06-24.2,30.32-29.28,35.15Z"/>
  <path class="cls-7" d="M937.41,1188.16c1.74,2.07,4.13,3.69,5.86,5.86-.68,3.61,1,8.9,0,11.72-.6,1.68-8.22,4.49-5.82,11.67,3.85.3,7.82-.25,11.68.04.24,5.84-.09,11.78-.03,17.61-35.35-17.29-32.24,42-51.15,58.77-18.03,15.98-69.33,14.25-94.94,32.29-22.72,16-53.51,53.92-76.83,69.6-16.67,11.21-50.91,16.5-56.84,22.23-12.17,11.76-1.83,47.12-12.67,54.79-15.6,11.03-98.23-30.87-88.23,25.88-9.61-.18-19.83.9-29.28,0-6.83-.65-26.53-11.54-41-5.86,7.07-35.44,38.21-45.39,61.63-64.56,87.04-71.23,190.62-135.27,280.95-199.08,7.25-5.12,17.27-6.3,23.6-11.54,7.37-6.11,16.35-27.9,23.38-29.39,17.96-3.83,7.17,29.56,26.22,23.42l11.77-29.3c1.97,2.34,9.7,3.46,11.71,5.86Z"/>
  <path class="cls-12" d="M937.41,1188.16c-2.01-2.4-9.75-3.52-11.71-5.86-.83-.98.61-6.46-2.15-9.46-12.97-14.12-28.15-26.97-38.85-43.26,19.94,16.77,42.5,33.7,52.71,58.58Z"/>
  <path class="cls-12" d="M878.84,1123.73l-17.57-11.72c4.08,3.16,9.14,4.72,17.57,11.72Z"/>
  <path class="cls-7" d="M539.14,549.67c31.65,2.45,17.94,39.44,36.93,56.76,7.08,6.46,21.14,6.89,27.9,16.09,23.01,31.31,47.91,74.87,73.31,108.25,24.59,32.32,54.25,57.13,75.44,82.71,13.32,16.07,22.08,49.66,33.28,66.3,12.28,18.25,35.3,28.15,40.13,50.65-2.19,1.74-6.18,13.02-23.43,23.43-4.4-7.37-15.48,1.39-24.61-1.14-41.79-11.6-97.03-67.62-139.38-86.72-4.83-27.68-9.39-15.32-20.97-31.58-73.85-103.74-88.51-155.6-78.6-284.73Z"/>
  <path class="cls-10" d="M943.26,789.84c1.23-4.51,1.34-8.91,5.86-11.72-1.54,2.93.54,9.67-5.86,11.72Z"/>
  <path class="cls-10" d="M1083.83,1170.59l5.74,2.88c-2.97,8.92-18.51,17.99-21.51,22.52-3.92,5.92-.81,14.17-1.8,15.61-4.07,5.91-16.52,14.07-21.11,19.89-6.01,7.62-2.9,23.45-19.88,21.11,11.39-26.66,38.03-61.82,58.57-82.01Z"/>
  <path class="cls-10" d="M1019.4,1276.03c1.96-6.12,3.87-11.65,5.86-17.57,9.72,6.65,4.22,14.19-5.86,17.57Z"/>
  <path class="cls-5" d="M1007.69,1311.17c-5.75-2.07-9.67-5.95-11.71-11.72l17.57-5.86h5.86c-2.67,8.24-10.8,14.78-11.71,17.57Z"/>
  <path class="cls-10" d="M1019.4,1293.6h-5.86l5.86-11.72c-1.02,3.15,1.02,8.57,0,11.72Z"/>
  <path class="cls-4" d="M457.14,719.55c1.4,22.51,10.26,46.23,5.86,70.29-1.01,5.51-26.12,53.87-29.23,55.7-10.69,6.28-31.04.55-43.1,8.2-9.05,5.74-7.24,28.05-17.92,36.23-9.57,7.33-27.16,4.79-40.84,11.85-27.43,14.17-73.71,62.47-97.63,78.09-9.71,6.34-32.92,7.81-48.54,15.88-31,16.02-57.49,67.7-83.05,75.13-15.04,4.37-6.21-16.02-8.76-25.22-1.24-4.45-10.44-3.61-11.49-8.01-4.97-20.69,3.22-55.14-.13-77.99,25.66-16.01,75.86-14.16,95.85-30.06,12.62-10.04,11.32-21.87,16.8-27.13,6.95-6.68,24.69-4.68,34.13-15.68,7.54-8.79,6.66-24.62,12.81-31.17,1.27-1.35,30.44-17.77,32.24-18.21,15.34-3.74,17.5,19.49,44.54,4.28,25.1-14.12,26.48-54.35,52.06-65.12,5.42-2.28,51.24-10.14,53.92-9.58,9.57,2,4.09,22.57,20.76,16.91.49-14.64-.57-29.49.03-44.17.46-11.26-6.04-23.49,11.72-20.23Z"/>
  <path class="cls-8" d="M457.14,684.4c12.57-3.19,37.21,22.25,43.57,29.66,57.86,67.38,40.53,107.97,137.99,151.93,1.95,11.15.79,45.13,5.07,50.15,9.71,11.4,28.22,5.18,42.35,16.64,27.61,22.4-1.77,69.83,58,50.36-38.04,17.22-58.42,24.73-99.57,35.15-6.36,1.61-18.52-1.95-23.43,0-13.17-23.44-42.32-39.86-58.57-58.58-14.69-16.93-40.47-49.09-52.71-70.29-18.02-31.22-22.62-72.94-46.85-99.58,4.4-24.06-4.46-47.78-5.86-70.29-.72-11.56,0-23.53,0-35.15Z"/>
  <path class="cls-4" d="M457.14,672.68c-13.86-5.13-.84-14.53,0-17.57v17.57Z"/>
  <path class="cls-11" d="M1745.65,742.98c.97.42,11.57,16.53,11.71,17.57,1.01,7.21-8.35,19.84-5.89,29.26,42.94-10.68,15.38,32.82.51,44.43-13.36,10.43-32.63,10.89-49.22,21.06-31.12,19.08-48.07,44.59-71.06,63.65-45.85,38.01-94.7,71.73-143.95,102.03-14.77,9.09-37.13,3.28-34.94,20.73-16.24-6.02-58.98-16.78-76.14-17.57-4.61-29.87,12.99-13.55,29.24-11.69,3.31-21.71,4.6-53.01,26.07-64.79,14.31-7.85,25.87-3.26,38.3-8.56,27.64-11.79,45.52-45.75,64.78-64.08,24.64-23.45,97.54-60.09,128.22-82.64,23.98-17.63,52.2-62.42,82.36-49.42Z"/>
  <path class="cls-8" d="M1376.67,1024.15c17.16.79,59.9,11.55,76.14,17.57,29.95,11.11,92.24,51.04,111.28,76.15,6.53,8.62,33.59,66.41,35.14,76.15,2.51,15.75.18,41.21,0,58.58-.81,77.62-22.31,101.26-46.85,169.87-19.45,2.59-9.76-6.99-8.88-17.62,10.49-127.19-31.91-249.74-155.11-304.55.94-30.34-29.75-45.08-41-70.29,5.43-.49,10.66-5.8,11.71-5.86,5.75-.29,11.82-.27,17.57,0Z"/>
  <path class="cls-5" d="M703.13,1030c-17.27,15.75-43.56-4.12-64.43-.06l5.86-5.8c19.73-1.38,39.5,1.53,58.57,5.86Z"/>
  <path class="cls-5" d="M726.56,1035.86c-1.18,9.95-14.26,7.69-17.57,0,4.48,1.45,13.07-1.44,17.57,0Z"/>
  <path class="cls-2" d="M931.55,98.63c15.55,51.96,78.66,92.39,102.22,129.14,8.94,13.95,11.65,39.37,16.37,45.14,4.13,5.05,19.87,5.73,28.1,15.86,7.43,9.15,7.04,24.67,14.44,32.39,6.39,6.67,19.93,7.58,29.64,17.22,10.1,10.02,12.23,26.11,22.78,35.8,7.44,6.83,22.68,9.21,25.28,12.79,4.75,6.54,3.16,34.32,8.21,38.67,4.52,3.9,29.51-.18,37.11,12.65s-.96,34.89,3.71,49.18c2.88,8.79,23.6,7.64,16.7,27.05-11.96,3.27-46.07,17.52-58.57,23.43.23-36.55-24.7-35.16-40.75-50.04-19.69-18.25-51.44-72.62-70.92-93.08-16.74-17.57-45.23-28.96-60.71-50.58-17.06-23.82-15.68-50.51-27.52-72.05-11.28-20.52-46.17-52.52-61.67-78.9-7.77-13.22-9.04-33.83-16.63-41.93-14-14.94-60.43-6.61-11.27-34.89l14.14,11.4c1.03-5.35-1.33-13.28.06-17.54l5.86-5.86c5.15-3.05,16.99-3.02,23.43-5.86Z"/>
  <path class="cls-14" d="M995.97,1363.89c10,10.14,8,13.49-5.86,11.72,2.09-5.67,5.3-10.18,5.86-11.72Z"/>
  <rect class="cls-2" x="1253.71" y="479.41" width="17.51" height="11.65"/>
  <path class="cls-2" d="M890.55,1516.19c8.92,22.84,25.13,5.1,37.4,7.19,13.93,2.37,32.21,40.41,40.42,49.7,46.59,52.73,114.72,113.59,140.45,175.87,11.56,10.17,47.29,39.36,52.85,50.06,9.88,19-24.37,33.79,4.15,33.49-.6.5,1.5,6.71-1.9,9.95-4.37,4.16-20.4.05-21.52,19.34h-5.86c-6.72-22.02-34.8-14.99-46.84-26.37-8.73-8.26-9.79-29.26-17.39-39.62-16.32-22.25-59.15-52.57-73.27-68.87-8.42-9.73-10.99-33.57-20.25-42.61-8.44-8.24-22.34-5.25-28.42-11.23-5.02-4.94-5.05-20.06-10.25-27.8-6.25-9.32-18.35-11.11-22.92-18.09-7.59-11.58-4.55-28.76-17.64-46.8-15.92-21.96-39.78-27.93-61.72-40.78,8.78-2.91,45.07-18.95,52.71-23.43Z"/>
  <path class="cls-4" d="M902.26,110.34c1.32-4.05,2.91-4.11,5.86-5.86l-5.86,5.86Z"/>
  <path class="cls-1" d="M949.12,1217.45c3.87.29,7.83-.2,11.71,0,1.56,2.68,1.09,14.59,5.86,23.43-29.21,6.42-27.6,49.76-41,76.15-34.69,68.34-103.65,90.42-128.85,128.87-19.68-7.03-31.63,13.85-41,17.57-2.88,1.14-8.75-1.12-11.71,0-61.44,23.27-108.63,36.39-175.71,35.15-10-56.75,72.63-14.86,88.23-25.88,10.84-7.66.51-43.03,12.67-54.79,5.93-5.73,40.17-11.02,56.84-22.23,23.32-15.68,54.11-53.6,76.83-69.6,25.61-18.04,76.91-16.31,94.94-32.29,18.91-16.77,15.8-76.06,51.15-58.77-.06-5.83.27-11.76.03-17.61-3.86-.29-7.83.26-11.68-.04-2.4-7.18,5.22-9.99,5.82-11.67,5.56,1.57,5.66,6.76,5.86,11.72Z"/>
  <path class="cls-12" d="M966.69,1240.88c1.07,1.99,4.72,3.67,5.86,5.86,25.69,41.12-4.99,66.99-46.85,70.29,13.4-26.39,11.78-69.73,41-76.15Z"/>
  <path class="cls-12" d="M796.84,1445.9c-1.03,1.57,1.55,10.81-2.87,17.39-7.25,10.81-42.83,21.61-38.13.18,9.37-3.72,21.32-24.6,41-17.57Z"/>
  <path class="cls-12" d="M1159.97,672.68c-8,18.21-27.58,40.86-41.04,55.61-7.97,8.74-24.12,14.1-29.66,23.05-13.04,21.06-5.33,26.57-28.93,54.5-7.49,8.87,1.62,20.01-17.51,19.13-2.05-.09-4.81.54-5.86,0,1.4-14.82-18.4-39.69-17.9-49.71.16-3.26,11.6-2.71,11.52-5.48-.39-14.33-10.88-37.73-5.3-56.09,30.35,13.13,55.05-14.17,77.55-24.92,10.83-5.17,25.34-2.02,33.76-7.5,4.81-3.13,3.66-13.77,9.65-15.07,6.33-1.38,12.66,6.47,13.71,6.47Z"/>
  <path class="cls-12" d="M1335.67,1030c3.68-.56,7.9.35,11.71,0,11.24,25.21,41.93,39.95,41,70.29-40.11-17.84-95.66-25.26-134.71-46.86,34.02-13.08,43.05-17.54,82-23.43Z"/>
  <path class="cls-12" d="M960.83,1217.45c-3.88-.2-7.85.29-11.71,0-.2-4.95-.3-10.15-5.86-11.72,1-2.82-.68-8.1,0-11.72,6.41,8.07,12.11,14.08,17.57,23.43Z"/>
  <path class="cls-12" d="M1288.82,590.68c-11.51,15.85-35.2,21.32-52.71,29.29-.47-20.98,18.68-17.55,30.67-23.86,4.6-2.42,4.21-11.1,8.35-11.73,7.62-1.15,12.75,6.27,13.69,6.29Z"/>
  <path class="cls-12" d="M1224.39,625.82c2.17,10.47-1.46,13.29-11.71,11.72,1.03-1.48-1.96-8.59.62-11.15,2.42-2.4,9.08.4,11.09-.56Z"/>
</svg>